/* $Id: max_search_radius.xbm,v 1.6 2010/01/14 16:42:12 rmk65 Exp $ */
#define max_search_radius_width 3
#define max_search_radius_height 3
static unsigned char max_search_radius_bits[] = {
   0x01, 0x00, 0x00 };
