#define left_arrow_width 20
#define left_arrow_height 20
static unsigned char left_arrow_bits[] = {
   0x00, 0x00, 0x00, 0x00, 0x04, 0x00, 0x00, 0x06, 0x00, 0x00, 0x07, 0x00,
   0x80, 0x07, 0x00, 0xc0, 0x07, 0x00, 0xe0, 0xff, 0x01, 0xf0, 0xff, 0x01,
   0xf8, 0xff, 0x01, 0xfc, 0xff, 0x01, 0xfc, 0xff, 0x01, 0xf8, 0xff, 0x01,
   0xf0, 0xff, 0x01, 0xe0, 0xff, 0x01, 0xc0, 0x07, 0x00, 0x80, 0x07, 0x00,
   0x00, 0x07, 0x00, 0x00, 0x06, 0x00, 0x00, 0x04, 0x00, 0x00, 0x00, 0x00};
