#define magnify-minus_width 20
#define magnify-minus_height 20
static unsigned char magnify-minus_bits[] = {
   0x00, 0x00, 0x00, 0x00, 0x00, 0x00, 0xc0, 0x07, 0x00, 0x30, 0x18, 0x00,
   0x18, 0x30, 0x00, 0x08, 0x20, 0x00, 0x04, 0x40, 0x00, 0xf4, 0x5f, 0x00,
   0xf4, 0x5f, 0x00, 0xf4, 0x5f, 0x00, 0x04, 0x40, 0x00, 0x08, 0x20, 0x00,
   0x18, 0x60, 0x00, 0x30, 0xf8, 0x00, 0xc0, 0xf7, 0x01, 0x00, 0xe0, 0x03,
   0x00, 0xc0, 0x01, 0x00, 0x80, 0x00, 0x00, 0x00, 0x00, 0x00, 0x00, 0x00};
