#define magnify-plus_width 20
#define magnify-plus_height 20
static unsigned char magnify-plus_bits[] = {
   0x00, 0x00, 0x00, 0x00, 0x00, 0x00, 0xc0, 0x07, 0x00, 0x30, 0x18, 0x00,
   0x98, 0x33, 0x00, 0x88, 0x23, 0x00, 0x84, 0x43, 0x00, 0xf4, 0x5f, 0x00,
   0xf4, 0x5f, 0x00, 0xf4, 0x5f, 0x00, 0x84, 0x43, 0x00, 0x88, 0x23, 0x00,
   0x98, 0x63, 0x00, 0x30, 0xf8, 0x00, 0xc0, 0xf7, 0x01, 0x00, 0xe0, 0x03,
   0x00, 0xc0, 0x01, 0x00, 0x80, 0x00, 0x00, 0x00, 0x00, 0x00, 0x00, 0x00};
