#define refresh_width 20
#define refresh_height 20
static unsigned char refresh_bits[] = {
   0x00, 0x00, 0x00, 0x00, 0x00, 0x00, 0x00, 0x00, 0x00, 0x80, 0x0f, 0x00,
   0xc0, 0x1f, 0x00, 0xe0, 0x38, 0x00, 0x70, 0x00, 0x00, 0x30, 0x40, 0x00,
   0xfe, 0xe3, 0x00, 0xfc, 0xf1, 0x01, 0xf8, 0xf8, 0x03, 0x70, 0xfc, 0x07,
   0x20, 0xc0, 0x00, 0x00, 0xe0, 0x00, 0xc0, 0x71, 0x00, 0x80, 0x3f, 0x00,
   0x00, 0x1f, 0x00, 0x00, 0x00, 0x00, 0x00, 0x00, 0x00, 0x00, 0x00, 0x00};
