#define right_arrow_width 20
#define right_arrow_height 20
static unsigned char right_arrow_bits[] = {
   0x00, 0x00, 0x00, 0x00, 0x02, 0x00, 0x00, 0x06, 0x00, 0x00, 0x0e, 0x00,
   0x00, 0x1e, 0x00, 0x00, 0x3e, 0x00, 0xf8, 0x7f, 0x00, 0xf8, 0xff, 0x00,
   0xf8, 0xff, 0x01, 0xf8, 0xff, 0x03, 0xf8, 0xff, 0x03, 0xf8, 0xff, 0x01,
   0xf8, 0xff, 0x00, 0xf8, 0x7f, 0x00, 0x00, 0x3e, 0x00, 0x00, 0x1e, 0x00,
   0x00, 0x0e, 0x00, 0x00, 0x06, 0x00, 0x00, 0x02, 0x00, 0x00, 0x00, 0x00};
