#define show-all-alt_width 20
#define show-all-alt_height 20
static unsigned char show-all-alt_bits[] = {
   0x00, 0x00, 0x00, 0xfe, 0xb7, 0x05, 0x02, 0x02, 0x04, 0x02, 0x02, 0x00,
   0x02, 0x02, 0x04, 0x02, 0x02, 0x04, 0x02, 0x02, 0x00, 0x02, 0x02, 0x04,
   0x02, 0x02, 0x04, 0xfe, 0x03, 0x00, 0x02, 0x08, 0x04, 0x00, 0x1c, 0x05,
   0x02, 0xb8, 0x01, 0x02, 0xf0, 0x05, 0x00, 0xe0, 0x05, 0x02, 0xf0, 0x01,
   0x02, 0xf8, 0x05, 0x00, 0x00, 0x04, 0xb6, 0x6d, 0x03, 0x00, 0x00, 0x00};
