#define show-subset-alt_width 20
#define show-subset-alt_height 20
static unsigned char show-subset-alt_bits[] = {
   0x00, 0x00, 0x00, 0xfe, 0xff, 0x07, 0x02, 0x02, 0x04, 0x02, 0x00, 0x04,
   0x02, 0x02, 0x04, 0x02, 0x00, 0x04, 0x02, 0x02, 0x04, 0x02, 0x00, 0x04,
   0x02, 0x02, 0x04, 0x56, 0x01, 0x04, 0x02, 0x00, 0x04, 0x02, 0xf8, 0x05,
   0x02, 0xf8, 0x04, 0x02, 0x78, 0x04, 0x02, 0xf8, 0x04, 0x02, 0xd8, 0x05,
   0x02, 0x88, 0x05, 0x02, 0x00, 0x04, 0xfe, 0xff, 0x07, 0x00, 0x00, 0x00};
