#define 4ring_40x20_width 40
#define 4ring_40x20_height 20
static unsigned char 4ring_40x20_bits[] = {
   0x00, 0x00, 0x60, 0x00, 0x00, 0x00, 0x00, 0xf0, 0x00, 0x00, 0x00, 0x00,
   0x98, 0x01, 0x00, 0x00, 0x00, 0x0c, 0x03, 0x00, 0x00, 0x00, 0x06, 0x06,
   0x00, 0x00, 0xe0, 0x03, 0x0c, 0x00, 0x00, 0xe0, 0x01, 0x18, 0x00, 0x00,
   0xe0, 0x00, 0x10, 0x00, 0x00, 0x00, 0x00, 0x10, 0x00, 0x00, 0x00, 0x00,
   0x10, 0x00, 0x00, 0x00, 0x00, 0x10, 0x00, 0x00, 0xe0, 0x00, 0x10, 0x00,
   0x00, 0xe0, 0x01, 0x10, 0x00, 0x00, 0xe0, 0x01, 0x18, 0x00, 0x00, 0x00,
   0x03, 0x0c, 0x00, 0x00, 0x00, 0x06, 0x06, 0x00, 0x00, 0x00, 0x0c, 0x03,
   0x00, 0x00, 0x00, 0x98, 0x01, 0x00, 0x00, 0x00, 0xf0, 0x00, 0x00, 0x00,
   0x00, 0x60, 0x00, 0x00};
