#define 5ring_40x20_width 40
#define 5ring_40x20_height 20
static unsigned char 5ring_40x20_bits[] = {
   0x00, 0x00, 0x00, 0x00, 0x00, 0x00, 0x00, 0x00, 0x00, 0x00, 0x00, 0x00,
   0x70, 0x00, 0x00, 0x00, 0x00, 0xd8, 0x01, 0x00, 0x00, 0x00, 0x0c, 0x07,
   0x00, 0x00, 0x00, 0x06, 0x1c, 0x00, 0x00, 0x00, 0x03, 0x30, 0x00, 0xe0,
   0x80, 0x01, 0x30, 0x00, 0xe0, 0xc0, 0x00, 0x30, 0x00, 0xe0, 0x7f, 0x00,
   0x30, 0x00, 0xe0, 0xc0, 0x00, 0x30, 0x00, 0xe0, 0x80, 0x01, 0x30, 0x00,
   0x00, 0x00, 0x03, 0x30, 0x00, 0x00, 0x00, 0x06, 0x1c, 0x00, 0x00, 0x00,
   0x0c, 0x07, 0x00, 0x00, 0x00, 0xd8, 0x01, 0x00, 0x00, 0x00, 0x70, 0x00,
   0x00, 0x00, 0x00, 0x00, 0x00, 0x00, 0x00, 0x00, 0x00, 0x00, 0x00, 0x00,
   0x00, 0x00, 0x00, 0x00};
