#define 6sing_width 30
#define 6sing_height 30
static unsigned char 6sing_bits[] = {
   0x00, 0x00, 0x00, 0x00, 0x00, 0x00, 0x00, 0x00, 0x00, 0x00, 0x00, 0x00,
   0x00, 0x00, 0x00, 0x00, 0x00, 0x00, 0x00, 0x00, 0x00, 0x00, 0x00, 0x00,
   0x00, 0x00, 0x00, 0x00, 0x00, 0xe0, 0x1f, 0x00, 0x00, 0xf0, 0x3f, 0x00,
   0x00, 0x30, 0x70, 0x00, 0x00, 0x18, 0xc0, 0x00, 0x00, 0x0c, 0x80, 0x01,
   0x02, 0x06, 0x00, 0x03, 0x07, 0x03, 0x00, 0x06, 0xff, 0x03, 0x00, 0x06,
   0xff, 0x03, 0x00, 0x06, 0x07, 0x03, 0x00, 0x06, 0x02, 0x06, 0x00, 0x03,
   0x00, 0x0c, 0x80, 0x01, 0x00, 0x18, 0xc0, 0x00, 0x00, 0x30, 0x60, 0x00,
   0x00, 0xe0, 0x3f, 0x00, 0x00, 0xc0, 0x1f, 0x00, 0x00, 0x00, 0x00, 0x00,
   0x00, 0x00, 0x00, 0x00, 0x00, 0x00, 0x00, 0x00, 0x00, 0x00, 0x00, 0x00,
   0x00, 0x00, 0x00, 0x00, 0x00, 0x00, 0x00, 0x00, 0x00, 0x00, 0x00, 0x00};
