#define addc_40x20_width 40
#define addc_40x20_height 20
static unsigned char addc_40x20_bits[] = {
   0x00, 0x00, 0x00, 0x00, 0x00, 0x00, 0x00, 0x00, 0x00, 0x00, 0x00, 0x00,
   0x00, 0x00, 0x00, 0x00, 0x00, 0x78, 0x00, 0x00, 0x00, 0x00, 0x84, 0x00,
   0x00, 0x00, 0x00, 0x02, 0x01, 0x00, 0x00, 0x00, 0x01, 0x01, 0x00, 0xe0,
   0x00, 0x01, 0x00, 0x00, 0xe0, 0x00, 0x01, 0x00, 0x00, 0xe0, 0x1f, 0x01,
   0x00, 0x00, 0xe0, 0x00, 0x01, 0x00, 0x00, 0xe0, 0x00, 0x01, 0x00, 0x00,
   0x00, 0x00, 0x01, 0x01, 0x00, 0x00, 0x00, 0x02, 0x01, 0x00, 0x00, 0x00,
   0x84, 0x00, 0x00, 0x00, 0x00, 0x78, 0x00, 0x00, 0x00, 0x00, 0x00, 0x00,
   0x00, 0x00, 0x00, 0x00, 0x00, 0x00, 0x00, 0x00, 0x00, 0x00, 0x00, 0x00,
   0x00, 0x00, 0x00, 0x00};
