#define bond_40x20_width 40
#define bond_40x20_height 20
static unsigned char bond_40x20_bits[] = {
   0x00, 0x00, 0x00, 0x00, 0x00, 0x00, 0x00, 0x00, 0x00, 0x00, 0x00, 0x00,
   0x00, 0x00, 0x00, 0x00, 0x00, 0x00, 0x00, 0x00, 0x50, 0x00, 0x00, 0x00,
   0x0a, 0x88, 0x00, 0x00, 0x00, 0x11, 0x04, 0x00, 0x00, 0x80, 0x00, 0x04,
   0x01, 0x00, 0x00, 0x20, 0x00, 0x00, 0x00, 0x80, 0x00, 0x04, 0xf0, 0xff,
   0x8f, 0x00, 0x04, 0xf0, 0xff, 0x8f, 0x00, 0x00, 0x00, 0x00, 0x00, 0x00,
   0x04, 0x01, 0x00, 0x80, 0x20, 0x04, 0x00, 0x00, 0x80, 0x00, 0x88, 0x00,
   0x00, 0x00, 0x11, 0x50, 0x00, 0x00, 0x00, 0x0a, 0x00, 0x00, 0x00, 0x00,
   0x00, 0x00, 0x00, 0x00, 0x00, 0x00, 0x00, 0x00, 0x00, 0x00, 0x00, 0x00,
   0x00, 0x00, 0x00, 0x00};
