#define delbond_40x20_width 40
#define delbond_40x20_height 20
static unsigned char delbond_40x20_bits[] = {
   0x00, 0x00, 0x00, 0x00, 0x00, 0x00, 0x00, 0x00, 0x00, 0x00, 0x00, 0x08,
   0x00, 0x02, 0x00, 0x00, 0x18, 0x00, 0x03, 0x00, 0x50, 0x30, 0x80, 0x01,
   0x0a, 0x88, 0x60, 0xc0, 0x00, 0x11, 0x04, 0xc1, 0x60, 0x80, 0x20, 0x00,
   0x81, 0x31, 0x00, 0x20, 0x04, 0x00, 0x1b, 0x80, 0x00, 0x04, 0xfe, 0xff,
   0x8f, 0x00, 0x00, 0x00, 0x0e, 0x80, 0x00, 0x04, 0x00, 0x1b, 0x00, 0x00,
   0x04, 0x81, 0x31, 0x80, 0x20, 0x04, 0xc1, 0x60, 0x80, 0x20, 0x88, 0x60,
   0xc0, 0x00, 0x11, 0x50, 0x30, 0x80, 0x01, 0x0a, 0x00, 0x08, 0x00, 0x02,
   0x00, 0x00, 0x00, 0x00, 0x00, 0x00, 0x00, 0x00, 0x00, 0x00, 0x00, 0x00,
   0x00, 0x00, 0x00, 0x00};
