#define slicer_down_m.xbm_width 13
#define slicer_down_m.xbm_height 8
static unsigned char slicer_down_m.xbm_bits[] = {
   0xff, 0x1f, 0x01, 0x10, 0x03, 0x18, 0x07, 0x1c, 0x0f, 0x1e, 0x1f, 0x1f,
   0xbf, 0x1f, 0xff, 0x1f};
