#define 3ring_40x20_width 40
#define 3ring_40x20_height 20
static unsigned char 3ring_40x20_bits[] = {
   0x00, 0x00, 0x00, 0x00, 0x00, 0x00, 0x00, 0x00, 0x00, 0x00, 0x00, 0x00,
   0xc0, 0x00, 0x00, 0x00, 0x00, 0x60, 0x01, 0x00, 0x00, 0x00, 0x18, 0x02,
   0x00, 0x00, 0xe0, 0x06, 0x04, 0x00, 0x00, 0xe0, 0x01, 0x08, 0x00, 0x00,
   0xe0, 0x00, 0x10, 0x00, 0x00, 0x00, 0x00, 0x20, 0x00, 0x00, 0x00, 0x00,
   0x40, 0x00, 0x00, 0x00, 0x00, 0x40, 0x00, 0x00, 0x00, 0x00, 0x20, 0x00,
   0x00, 0xe0, 0x00, 0x10, 0x00, 0x00, 0xe0, 0x01, 0x08, 0x00, 0x00, 0xe0,
   0x06, 0x04, 0x00, 0x00, 0x00, 0x18, 0x02, 0x00, 0x00, 0x00, 0x60, 0x01,
   0x00, 0x00, 0x00, 0xc0, 0x00, 0x00, 0x00, 0x00, 0x00, 0x00, 0x00, 0x00,
   0x00, 0x00, 0x00, 0x00};
