#define 6ring_40x20_width 40
#define 6ring_40x20_height 20
static unsigned char 6ring_40x20_bits[] = {
   0x00, 0x00, 0x00, 0x00, 0x00, 0x00, 0x00, 0x00, 0x00, 0x00, 0x00, 0x00,
   0xf8, 0x0f, 0x00, 0x00, 0x00, 0xfc, 0x1f, 0x00, 0x00, 0x00, 0x06, 0x30,
   0x00, 0x00, 0x00, 0x03, 0x60, 0x00, 0x00, 0x00, 0x01, 0x60, 0x00, 0xe0,
   0x80, 0x01, 0xc0, 0x00, 0xe0, 0xc0, 0x00, 0x80, 0x01, 0xe0, 0x7f, 0x00,
   0x00, 0x01, 0xe0, 0xc0, 0x00, 0x80, 0x01, 0xe0, 0x80, 0x01, 0xc0, 0x00,
   0x00, 0x00, 0x01, 0x60, 0x00, 0x00, 0x00, 0x03, 0x60, 0x00, 0x00, 0x00,
   0x06, 0x30, 0x00, 0x00, 0x00, 0xfc, 0x1f, 0x00, 0x00, 0x00, 0xf8, 0x0f,
   0x00, 0x00, 0x00, 0x00, 0x00, 0x00, 0x00, 0x00, 0x00, 0x00, 0x00, 0x00,
   0x00, 0x00, 0x00, 0x00};
