#define delc_40x20_width 40
#define delc_40x20_height 20
static unsigned char delc_40x20_bits[] = {
   0x00, 0x00, 0x00, 0x00, 0x00, 0x00, 0x00, 0x00, 0x00, 0x00, 0x00, 0x08,
   0x00, 0x02, 0x00, 0x00, 0x18, 0x1e, 0x03, 0x00, 0x00, 0x30, 0xa1, 0x01,
   0x00, 0x00, 0xe0, 0xc0, 0x00, 0x00, 0x00, 0xc0, 0x60, 0x00, 0x00, 0x00,
   0xc0, 0x31, 0x00, 0x00, 0x00, 0x40, 0x1b, 0x00, 0x00, 0x00, 0x40, 0x0e,
   0x00, 0x00, 0x00, 0x40, 0x0e, 0x00, 0x00, 0x00, 0x40, 0x5b, 0x00, 0x00,
   0x00, 0xc0, 0x71, 0x00, 0x00, 0x00, 0xc0, 0x60, 0x00, 0x00, 0x00, 0x60,
   0xe1, 0x00, 0x00, 0x00, 0x30, 0x9e, 0x01, 0x00, 0x00, 0x18, 0x00, 0x03,
   0x00, 0x00, 0x00, 0x00, 0x00, 0x00, 0x00, 0x00, 0x00, 0x00, 0x00, 0x00,
   0x00, 0x00, 0x00, 0x00};
