/* $Id: diamond.xbm,v 1.7 2010/01/14 16:42:11 rmk65 Exp $ */
/* Created with The GIMP */
#define diamond_width 7
#define diamond_height 7
static unsigned char diamond_bits[] = {
   0x08, 0x1c, 0x3e, 0x7f, 0x3e, 0x1c, 0x08 };
