/* $Id: histo_stipple_1.xbm,v 1.7 2010/01/14 16:42:11 rmk65 Exp $ */
#define stipple1_width 4
#define stipple1_height 4
static unsigned char stipple1_bits[] = {
   0x09, 0x03, 0x06, 0x0c };
