/* $Id: max_search_radius.xbm,v 1.7 2010/01/14 16:42:11 rmk65 Exp $ */
#define max_search_radius_width 5
#define max_search_radius_height 5
static unsigned char max_search_radius_bits[] = {
   0x01, 0x02, 0x04, 0x08, 0x10 };
