/* $Id: stipple3.xbm,v 1.7 2010/01/14 16:42:11 rmk65 Exp $ */
/* Created with The GIMP */
#define stipple3_width 5
#define stipple3_height 5
static unsigned char stipple3_bits[] = {
   0x00, 0x00, 0x1f, 0x00, 0x00 };
