/* $Id: stipple2.xbm,v 1.7 2010/01/14 16:42:11 rmk65 Exp $ */
#define stipple2_width 5
#define stipple2_height 5
static unsigned char stipple2_bits[] = {
   0x11, 0x18, 0x0c, 0x06, 0x03 };
