/* $Id: triangle_left.xbm,v 1.7 2010/01/14 16:42:11 rmk65 Exp $ */
/* Created with The GIMP */
#define triangle_left_width 7
#define triangle_left_height 7
static unsigned char triangle_left_bits[] = {
   0x60, 0x78, 0x7e, 0x7f, 0x7e, 0x78, 0x60 };
