/* $Id: triangle_right.xbm,v 1.7 2010/01/14 16:42:11 rmk65 Exp $ */
/* Created with The GIMP */
#define triangle_right_width 7
#define triangle_right_height 7
static unsigned char triangle_right_bits[] = {
   0x03, 0x0f, 0x3f, 0x7f, 0x3f, 0x0f, 0x03 };
