/* $Id: zoom.xbm,v 1.7 2010/01/14 16:42:11 rmk65 Exp $ */
#define zoom_width 16
#define zoom_height 16
#define zoom_x_hot 0
#define zoom_y_hot 0
static unsigned char zoom_bits[] = {
   0x00, 0x00, 0x1e, 0x0f, 0x8e, 0x10, 0x46, 0x20, 0x22, 0x40, 0x20, 0x40,
   0x20, 0x40, 0x20, 0x40, 0x40, 0x20, 0xe0, 0x10, 0x70, 0x0f, 0x38, 0x00,
   0x1c, 0x00, 0x0e, 0x00, 0x06, 0x00, 0x00, 0x00 };
